<svg width="112" height="24" viewBox="0 0 112 24" fill="none" xmlns="http://www.w3.org/2000/svg">
<path d="M0.997634 24C0.726672 24 0.492659 23.92 0.295595 23.76C0.0985318 23.5771 0 23.36 0 23.1086V0.891429C0 0.64 0.0985318 0.434286 0.295595 0.274286C0.492659 0.0914287 0.726672 0 0.997634 0H5.91191C6.3553 0 6.68784 0.114286 6.90954 0.342857C7.13124 0.571429 7.27903 0.731429 7.35293 0.822857L13.2648 10.3543L19.1767 0.822857C19.2506 0.731429 19.3984 0.571429 19.6201 0.342857C19.8418 0.114286 20.1744 0 20.6178 0H25.532C25.803 0 26.0247 0.0914287 26.1971 0.274286C26.3942 0.434286 26.4927 0.64 26.4927 0.891429V23.1086C26.4927 23.36 26.3942 23.5771 26.1971 23.76C26.0247 23.92 25.803 24 25.532 24H19.9896C19.7187 24 19.4847 23.92 19.2876 23.76C19.1152 23.5771 19.0289 23.36 19.0289 23.1086V12L15.7035 17.4171C15.5803 17.6 15.4202 17.7829 15.2232 17.9657C15.0261 18.1486 14.7428 18.24 14.3733 18.24H12.1194C11.7745 18.24 11.5036 18.1486 11.3065 17.9657C11.1095 17.7829 10.9493 17.6 10.8262 17.4171L7.50073 12V23.1086C7.50073 23.36 7.4022 23.5771 7.20513 23.76C7.0327 23.92 6.81101 24 6.54005 24H0.997634Z" fill="#1D1D1D"/>
<path d="M29.0347 24C28.813 24 28.616 23.9314 28.4435 23.7943C28.2957 23.6343 28.2218 23.4514 28.2218 23.2457C28.2218 23.1543 28.2465 23.0743 28.2957 23.0057L36.7202 1.06286C36.7941 0.81143 36.9542 0.571429 37.2005 0.342857C37.4715 0.114286 37.8287 0 38.2721 0H45.0338C45.5019 0 45.859 0.114286 46.1054 0.342857C46.3517 0.571429 46.5118 0.81143 46.5857 1.06286L55.0471 23.0057C55.0717 23.0743 55.0841 23.1543 55.0841 23.2457C55.0841 23.4514 54.9978 23.6343 54.8254 23.7943C54.6776 23.9314 54.4929 24 54.2712 24H48.581C48.1622 24 47.8543 23.9086 47.6572 23.7257C47.4602 23.5429 47.3247 23.3714 47.2508 23.2114L46.1054 20.3314H37.2005L36.0551 23.2114C35.9812 23.3714 35.8457 23.5429 35.6487 23.7257C35.4762 23.9086 35.1683 24 34.7249 24H29.0347ZM38.9002 14.5371H44.4057L41.6345 6.82286L38.9002 14.5371Z" fill="#1D1D1D"/>
<path d="M57.7574 24C57.5111 24 57.2894 23.92 57.0923 23.76C56.8953 23.5771 56.7967 23.36 56.7967 23.1086V0.891429C56.7967 0.64 56.8953 0.434286 57.0923 0.274286C57.2894 0.0914287 57.5111 0 57.7574 0H75.8626C76.1336 0 76.3676 0.0914287 76.5647 0.274286C76.7617 0.434286 76.8603 0.64 76.8603 0.891429V4.93714C76.8603 5.16572 76.7617 5.37143 76.5647 5.55429C76.3676 5.73714 76.1336 5.82857 75.8626 5.82857H64.4453V9.22286H75.0497C75.3207 9.22286 75.5547 9.31429 75.7518 9.49714C75.9488 9.65714 76.0474 9.86286 76.0474 10.1143V13.8171C76.0474 14.0686 75.9488 14.2857 75.7518 14.4686C75.5547 14.6286 75.3207 14.7086 75.0497 14.7086H64.4453V18.1714H76.1582C76.4292 18.1714 76.6632 18.2629 76.8603 18.4457C77.0573 18.6286 77.1558 18.8457 77.1558 19.0971V23.1086C77.1558 23.36 77.0573 23.5771 76.8603 23.76C76.6632 23.92 76.4292 24 76.1582 24H57.7574Z" fill="#1D1D1D"/>
<path d="M81.1582 24C80.9119 24 80.6902 23.92 80.4931 23.76C80.2961 23.5771 80.1975 23.36 80.1975 23.1086V0.891429C80.1975 0.64 80.2961 0.434286 80.4931 0.274286C80.6902 0.0914287 80.9119 0 81.1582 0H87.4396C87.7106 0 87.9323 0.0914287 88.1047 0.274286C88.3018 0.434286 88.4003 0.64 88.4003 0.891429V23.1086C88.4003 23.36 88.3018 23.5771 88.1047 23.76C87.9323 23.92 87.7106 24 87.4396 24H81.1582Z" fill="#1D1D1D"/>
<path d="M93.1927 24C92.9464 24 92.7247 23.92 92.5277 23.76C92.3306 23.5771 92.2321 23.36 92.2321 23.1086V0.891429C92.2321 0.64 92.3306 0.434286 92.5277 0.274286C92.7247 0.0914287 92.9464 0 93.1927 0H99.3264C99.5973 0 99.8313 0.0914287 100.028 0.274286C100.225 0.434286 100.324 0.64 100.324 0.891429V17.8971H111.002C111.273 17.8971 111.507 17.9886 111.704 18.1714C111.901 18.3314 112 18.5371 112 18.7886V23.1086C112 23.36 111.901 23.5771 111.704 23.76C111.507 23.92 111.273 24 111.002 24H93.1927Z" fill="#1D1D1D"/>
</svg>
