<svg width="60" height="32" viewBox="0 0 60 32" fill="none" xmlns="http://www.w3.org/2000/svg">
<path d="M10.912 8.992V14.496H9.632V9.232H7.76V22.688H9.632V16.096H10.912V23.344H12.816V8.992H10.912ZM0.912 19.744H6.56V10.496H0.912V19.744ZM2.768 18.192V12.048H4.704V18.192H2.768ZM19.1684 9.424C16.9764 9.424 15.3444 10.784 15.3444 12.704C15.3444 14.592 16.9764 15.968 19.1684 15.968C21.3604 15.968 22.9764 14.592 22.9764 12.704C22.9764 10.784 21.3604 9.424 19.1684 9.424ZM17.2804 12.704C17.2804 11.664 18.0804 11.056 19.1684 11.056C20.2404 11.056 21.0724 11.664 21.0724 12.704C21.0724 13.744 20.2404 14.368 19.1684 14.368C18.0804 14.368 17.2804 13.744 17.2804 12.704ZM17.4884 18.336H25.0724V19.232H17.5204V23.184H27.3924V21.632H19.4724V20.672H27.0244V16.784H17.4884V18.336ZM25.0244 16.208H27.0244V9.008H25.0244V16.208ZM39.6328 8.992V23.376H41.6328V8.992H39.6328ZM30.6248 19.952H31.8568C34.9128 19.952 36.7208 19.872 38.7048 19.504L38.5128 17.872C36.7528 18.208 35.1528 18.288 32.6088 18.304V11.888H37.5368V10.272H30.6248V19.952Z" fill="#1D1D1D"/>
<circle cx="44" cy="16" r="15.5" stroke="#1D1D1D"/>
</svg>
